<svg width="32" height="32" viewBox="0 0 32 32" fill="none" xmlns="http://www.w3.org/2000/svg">
<rect width="32" height="32" rx="16" fill="#2F5C7C"/>
<path d="M21.9785 10.4165L19.6377 9.89355C19.0898 9.76904 18.542 10.043 18.3428 10.541L17.2471 13.0811C17.0479 13.5293 17.1724 14.0771 17.5708 14.4009L18.5669 15.2227C17.8696 16.5176 16.7739 17.5884 15.479 18.3105L14.6572 17.3145C14.3335 16.916 13.7856 16.7915 13.3374 16.9907L10.7974 18.0615C10.2993 18.2856 10.0254 18.8335 10.1499 19.3813L10.6729 21.7222C10.7974 22.2451 11.2705 22.5938 11.7935 22.5938C17.8945 22.5938 22.875 17.6631 22.875 11.5371C22.875 11.0142 22.5015 10.541 21.9785 10.4165ZM11.8433 21.3984L11.3203 19.1572L13.7607 18.1113L15.1553 19.8047C17.6206 18.6343 18.8906 17.3643 20.061 14.8989L18.3677 13.5044L19.4136 11.064L21.6797 11.5869C21.6548 16.9907 17.2471 21.3735 11.8433 21.3984Z" fill="white"/>
</svg>
