<svg width="13" height="14" viewBox="0 0 13 14" fill="none" xmlns="http://www.w3.org/2000/svg">
<path d="M11.9785 1.4165L9.6377 0.893555C9.08984 0.769043 8.54199 1.04297 8.34277 1.54102L7.24707 4.08105C7.04785 4.5293 7.17236 5.07715 7.5708 5.40088L8.56689 6.22266C7.86963 7.51758 6.77393 8.58838 5.479 9.31055L4.65723 8.31445C4.3335 7.91602 3.78564 7.7915 3.3374 7.99072L0.797363 9.06152C0.299316 9.28564 0.0253906 9.8335 0.149902 10.3813L0.672852 12.7222C0.797363 13.2451 1.27051 13.5938 1.79346 13.5938C7.89453 13.5938 12.875 8.66309 12.875 2.53711C12.875 2.01416 12.5015 1.54102 11.9785 1.4165ZM1.84326 12.3984L1.32031 10.1572L3.76074 9.11133L5.15527 10.8047C7.62061 9.63428 8.89062 8.36426 10.061 5.89893L8.36768 4.50439L9.41357 2.06396L11.6797 2.58691C11.6548 7.99072 7.24707 12.3735 1.84326 12.3984Z" fill="white"/>
</svg>
