<svg width="80" height="80" viewBox="0 0 80 80" fill="none" xmlns="http://www.w3.org/2000/svg">
<circle cx="40" cy="40" r="40" fill="#2F5C7C"/>
<path d="M49.6992 38.5352L48.8828 37.6758C48.668 37.4609 48.3242 37.4609 48.1523 37.6758L41.4922 44.3359V29.6406C41.4922 29.3828 41.2344 29.125 40.9766 29.125H39.7734C39.4727 29.125 39.2578 29.3828 39.2578 29.6406V44.3359L32.5547 37.6758C32.3828 37.4609 32.0391 37.4609 31.8242 37.6758L31.0078 38.5352C30.793 38.707 30.793 39.0508 31.0078 39.2656L39.9883 48.2461C40.2031 48.4609 40.5039 48.4609 40.7188 48.2461L49.6992 39.2656C49.9141 39.0508 49.9141 38.707 49.6992 38.5352Z" fill="white"/>
</svg>
