<svg width="34" height="33" viewBox="0 0 34 33" fill="none" xmlns="http://www.w3.org/2000/svg">
<g clip-path="url(#clip0)">
<rect x="0.25" width="32.3" height="32.3" rx="16.15" fill="#2F5C7C"/>
<path d="M22.9507 20.8755L20.4604 18.3853C20.3359 18.2856 20.1865 18.2109 20.0371 18.2109H19.6387C20.311 17.3394 20.7344 16.2437 20.7344 15.0234C20.7344 12.1846 18.3936 9.84375 15.5547 9.84375C12.6909 9.84375 10.375 12.1846 10.375 15.0234C10.375 17.8872 12.6909 20.2031 15.5547 20.2031C16.75 20.2031 17.8457 19.8047 18.7422 19.1074V19.5308C18.7422 19.6802 18.792 19.8296 18.9165 19.9541L21.3818 22.4194C21.6309 22.6685 22.0044 22.6685 22.2285 22.4194L22.9258 21.7222C23.1748 21.498 23.1748 21.1245 22.9507 20.8755ZM15.5547 18.2109C13.7866 18.2109 12.3672 16.7915 12.3672 15.0234C12.3672 13.2803 13.7866 11.8359 15.5547 11.8359C17.2979 11.8359 18.7422 13.2803 18.7422 15.0234C18.7422 16.7915 17.2979 18.2109 15.5547 18.2109Z" fill="white"/>
</g>
<defs>
<clipPath id="clip0">
<rect width="33" height="33" fill="white" transform="translate(0.25)"/>
</clipPath>
</defs>
</svg>
