<svg width="12" height="17" viewBox="0 0 12 17" fill="none" xmlns="http://www.w3.org/2000/svg">
<path d="M9.5625 5.84375L9.375 4.5H10.25C10.6562 4.5 11 4.1875 11 3.75V0.75C11 0.34375 10.6562 0 10.25 0H1.75C1.3125 0 1 0.34375 1 0.75V3.75C1 4.1875 1.3125 4.5 1.75 4.5H2.59375L2.40625 5.84375C0.90625 6.875 0 8.46875 0 10.25C0 10.6875 0.3125 11 0.75 11H5.25V14.25C5.25 14.2812 5.25 14.3125 5.25 14.3438L5.75 15.8438C5.8125 16.0625 6.15625 16.0625 6.21875 15.8438L6.71875 14.3438C6.71875 14.3125 6.75 14.2812 6.75 14.25V11H11.25C11.6562 11 12 10.6875 12 10.25C12 8.46875 11.0625 6.875 9.5625 5.84375ZM1.5625 9.5C1.8125 8.3125 2.6875 7.3125 3.8125 6.78125L4.3125 3H2.5V1.5H9.5V3H7.6875L8.1875 6.78125C9.28125 7.3125 10.1562 8.3125 10.4062 9.5H1.5625Z" fill="#B7BDC1"/>
</svg>
