<svg width="34" height="33" viewBox="0 0 34 33" fill="none" xmlns="http://www.w3.org/2000/svg">
<g clip-path="url(#clip0)">
<rect x="0.450073" width="32.3" height="32.3" rx="16.15" fill="#3BA6E5"/>
<path d="M22.0052 14.6289C22.5033 14.2554 22.9515 13.8071 23.3002 13.2842C22.8519 13.4834 22.329 13.6328 21.806 13.6826C22.3539 13.3589 22.7523 12.8608 22.9515 12.2383C22.4535 12.5371 21.8807 12.7612 21.308 12.8857C20.8099 12.3628 20.1376 12.064 19.3905 12.064C17.9462 12.064 16.7758 13.2344 16.7758 14.6787C16.7758 14.8779 16.8007 15.0771 16.8505 15.2764C14.684 15.1519 12.7416 14.106 11.4467 12.5371C11.2225 12.9106 11.098 13.3589 11.098 13.8569C11.098 14.7534 11.5463 15.5503 12.2684 16.0234C11.8451 15.9985 11.4218 15.8989 11.0731 15.6997V15.7246C11.0731 16.9946 11.9696 18.0405 13.1649 18.2896C12.9657 18.3394 12.7167 18.3892 12.4926 18.3892C12.3182 18.3892 12.1688 18.3643 11.9945 18.3394C12.3182 19.3853 13.2894 20.1323 14.4349 20.1572C13.5385 20.8545 12.4178 21.2778 11.1976 21.2778C10.9735 21.2778 10.7743 21.2529 10.5751 21.228C11.7206 21.9751 13.0902 22.3984 14.5844 22.3984C19.3905 22.3984 22.0052 18.439 22.0052 14.9775C22.0052 14.853 22.0052 14.7534 22.0052 14.6289Z" fill="white"/>
</g>
<defs>
<clipPath id="clip0">
<rect width="33" height="33" fill="white" transform="translate(0.450073)"/>
</clipPath>
</defs>
</svg>
